<svg xmlns="http://www.w3.org/2000/svg" version="1.1" xmlns:xlink="http://www.w3.org/1999/xlink" xmlns:svgjs="http://svgjs.com/svgjs" width="512" height="512" x="0" y="0" viewBox="0 0 512 512" style="enable-background:new 0 0 512 512" xml:space="preserve" class=""><g><g id="Layer_2_00000165948956764897113430000001197903126516912525_"><g id="add_friend"><path d="m142.4 249h95.5c78.7 0 142.4 63.8 142.4 142.4v40.6c0 33.2-26.9 60.2-60.2 60.2h-260c-33.2-.1-60.1-27-60.1-60.2v-40.6c0-78.7 63.8-142.4 142.4-142.4z" fill="#f8f9fa" data-original="#000000" class=""></path><circle cx="190.2" cy="121.2" r="101.3" fill="#f8f9fa" data-original="#000000" class=""></circle><path d="m483.2 168.4h-32.8v-32.8c0-15.9-12.9-28.8-28.8-28.8-15.9 0-28.8 12.9-28.8 28.8v32.8h-32.8c-15.9 0-28.8 12.9-28.8 28.8 0 15.9 12.9 28.8 28.8 28.8h32.8v32.8c0 15.9 12.9 28.8 28.8 28.8 15.9 0 28.8-12.9 28.8-28.8v-32.8h32.8c15.9 0 28.8-12.9 28.8-28.8 0-15.9-12.9-28.8-28.8-28.8z" fill="#f8f9fa" data-original="#000000" class=""></path></g></g></g></svg>