<svg xmlns="http://www.w3.org/2000/svg" version="1.1" xmlns:xlink="http://www.w3.org/1999/xlink" xmlns:svgjs="http://svgjs.com/svgjs" width="512" height="512" x="0" y="0" viewBox="0 0 24 24" style="enable-background:new 0 0 512 512" xml:space="preserve" class=""><g><g clip-rule="evenodd" fill="rgb(0,0,0)" fill-rule="evenodd"><path d="m12 2c.5523 0 1 .44772 1 1v18c0 .5523-.4477 1-1 1s-1-.4477-1-1v-18c0-.55228.4477-1 1-1z" fill="#f8f9fa" data-original="#000000" class=""></path><path d="m7.13728 6.1816c.7322-.75313 1.73139-1.1816 2.77939-1.1816h6.25003c.5523 0 1 .44772 1 1s-.4477 1-1 1h-6.25003c-.4991 0-.98365.20367-1.3454.57576-.36269.37305-.57127.88486-.57127 1.42424s.20858 1.0512.57127 1.4242c.36175.3721.8463.5758 1.3454.5758h4.16663c1.048 0 2.0472.4285 2.7794 1.1816.7313.7522 1.1373 1.7665 1.1373 2.8184s-.406 2.0662-1.1373 2.8184c-.7322.7531-1.7314 1.1816-2.7794 1.1816h-7.0833c-.55228 0-1-.4477-1-1s.44772-1 1-1h7.0833c.4991 0 .9837-.2037 1.3454-.5758.3627-.373.5713-.8848.5713-1.4242s-.2086-1.0512-.5713-1.4242c-.3617-.3721-.8463-.5758-1.3454-.5758h-4.16663c-1.048 0-2.04719-.4285-2.77939-1.1816-.73128-.7522-1.13728-1.7665-1.13728-2.8184 0-1.05192.406-2.06623 1.13728-2.8184z" fill="#f8f9fa" data-original="#000000" class=""></path></g></g></svg>