<svg xmlns="http://www.w3.org/2000/svg" version="1.1" xmlns:xlink="http://www.w3.org/1999/xlink" xmlns:svgjs="http://svgjs.com/svgjs" width="512" height="512" x="0" y="0" viewBox="0 0 24 24" style="enable-background:new 0 0 512 512" xml:space="preserve" class=""><g><path d="m12.9999 21c0 .553-.448 1-1 1h-4.00002c-2.757 0-5-2.243-5-5v-10c0-2.757 2.243-5 5-5h4.00002c.552 0 1 .447 1 1s-.448 1-1 1h-4.00002c-1.654 0-3 1.346-3 3v10c0 1.654 1.346 3 3 3h4.00002c.553 0 1 .447 1 1zm7.707-9.707-4-4.00003c-.391-.391-1.023-.391-1.414 0s-.391 1.02306 0 1.41406l2.293 2.29297h-7.58602c-.552 0-1 .447-1 1s.448 1 1 1h7.58602l-2.293 2.293c-.391.391-.391 1.023 0 1.414.195.195.451.293.707.293s.512-.098.707-.293l4-4c.391-.391.391-1.024 0-1.414z" fill="#f8f9fa" data-original="#000000" class=""></path></g></svg>