<svg xmlns="http://www.w3.org/2000/svg" version="1.1" xmlns:xlink="http://www.w3.org/1999/xlink" xmlns:svgjs="http://svgjs.com/svgjs" width="512" height="512" x="0" y="0" viewBox="0 0 64 64" style="enable-background:new 0 0 512 512" xml:space="preserve" class=""><g><g><path d="m15.3 35.4c-2.9-.6-5.6.1-7.4 1.9-.8.8-.8 2 0 2.8l6.6 6.6-1.6 1.6c-.8.8-.8 2 0 2.8.4.4.9.6 1.4.6s1-.2 1.4-.6l1.6-1.6 4.1 4.1 1.8 1.8c.5.5 1.3 1.3 2.2 1.3.4 0 .8-.2 1.3-.6 3.7-3.7 2.5-10.2-3.1-15.8-2.7-2.6-5.6-4.3-8.3-4.9zm9.4 16.1c-1.4-1.4-3.5-3.5-5.8-5.8-.1-.1-.2-.2-.3-.3s-.2-.2-.3-.3c-1.9-1.9-3.9-3.9-5.8-5.8.7-.1 1.3 0 1.9.1 2 .4 4.2 1.8 6.3 3.9 2.9 2.8 4.4 5.9 4 8.2z" fill="#f8f9fa" data-original="#000000"></path><path d="m62.3 41.5-7.7-7.7c-2.3-2.3-6.1-2.3-8.5 0l-4.3 4.2-1.2-1.2 1.6-1.6c1.4-1.4 2-3.4 1.7-5.3l.9-.9c2.1-2.1 2.1-5.6 0-7.8l-2.1-2.1c-2.1-2.1-5.6-2.1-7.8 0l-.9.9c-1.9-.3-3.8.2-5.3 1.7l-1.6 1.6-1.1-1.1 4.3-4.3c2.3-2.3 2.3-6.1 0-8.5l-7.7-7.7c-2.3-2.3-6.1-2.3-8.5 0l-11.4 11.4c-2.3 2.3-2.3 6.1 0 8.5l7.7 7.7c1.2 1.2 2.7 1.8 4.2 1.8s3.1-.6 4.2-1.8l4.3-4.3 1.1 1.1-2.6 2.6c-1.1 1.1-1.8 2.6-1.8 4.2s.6 3.1 1.8 4.2l4.9 4.9c1.1 1.1 2.6 1.8 4.2 1.8s3.1-.6 4.2-1.8l2.6-2.6 1.2 1.2-4.3 4.3c-2.3 2.3-2.3 6.1 0 8.5l7.7 7.7c1.2 1.2 2.7 1.8 4.2 1.8s3.1-.6 4.2-1.8l11.8-11.1c2.4-2.4 2.4-6.2 0-8.5zm-34.8-26.3-4.3 4.3-3.9-3.9 5.7-5.8 2.5 2.5c.8.8.8 2.1 0 2.9zm-10.6-10.6c.4-.4.9-.6 1.4-.6s1 .2 1.4.6l2.5 2.4-5.7 5.7-3.8-3.8zm-11.3 11.4 4.3-4.3 3.8 3.8-5.7 5.7-2.4-2.4c-.8-.8-.8-2.1 0-2.8zm10.5 10.5c-.8.8-2 .8-2.8 0l-2.5-2.5 5.7-5.7 3.9 3.9zm23.8-4.5 2.1 2.1c.6.6.6 1.5 0 2.1l-.1.1-4.2-4.2.1-.1c.6-.6 1.5-.6 2.1 0zm-8.3 2.6c.4-.4.9-.6 1.4-.6s1 .2 1.4.6l5 5c.8.8.8 2 0 2.8l-1.6 1.6-7.8-7.8zm.8 14.8c-.7.8-2.1.7-2.8 0l-4.9-4.9c-.4-.4-.6-.9-.6-1.4s.2-1 .6-1.4l2.6-2.6 7.8 7.8zm16.5-2.8c.4-.4.9-.6 1.4-.6s1 .2 1.4.6l2.4 2.4-5.7 5.7-3.8-3.8zm-11.3 11.4 4.3-4.3 3.8 3.8-5.7 5.7-2.4-2.4c-.8-.8-.8-2.1 0-2.8zm10.5 10.5c-.8.8-2 .8-2.8 0l-2.5-2.5 5.7-5.7 3.9 3.9zm11.4-11.3-4.3 4.3-3.9-3.9 5.7-5.7 2.5 2.5c.8.7.8 2 0 2.8z" fill="#f8f9fa" data-original="#000000"></path></g></g></svg>