<svg xmlns="http://www.w3.org/2000/svg" version="1.1" xmlns:xlink="http://www.w3.org/1999/xlink" xmlns:svgjs="http://svgjs.com/svgjs" width="512" height="512" x="0" y="0" viewBox="0 0 64 64" style="enable-background:new 0 0 512 512" xml:space="preserve" class=""><g><path d="m63.4 57.6-7.4-7.4c1.8-2.4 2.9-5.4 2.9-8.7 0-2.1-.5-4.1-1.3-5.9 0-.1.1-.2.1-.3.1-1.1.2-2.2.2-3.2.1-14.4-11.6-26.1-25.9-26.1s-26 11.7-26 26 11.7 26 26 26c3.6 0 7.1-.7 10.4-2.2.7.1 1.4.2 2.1.2 3.3 0 6.3-1.1 8.7-2.9l7.4 7.4c.4.3.9.5 1.4.5s1-.2 1.4-.6c.8-.8.8-2 0-2.8zm-53.3-23.6h7.9c.1 2.9.5 5.7 1 8.2-1.9.6-3.7 1.3-5.3 2.1-1.9-3-3.3-6.5-3.6-10.3zm3.7-14.3c1.6.8 3.4 1.5 5.3 2.1-.6 2.5-.9 5.3-1 8.2h-7.9c.2-3.8 1.6-7.3 3.6-10.3zm26.1-.8c-1.9.3-3.9.6-5.9.6v-9c2.3 1.2 4.4 4.2 5.9 8.4zm-9.9-8.4v9.1c-2-.1-4-.3-5.9-.7 1.4-4.1 3.4-7.3 5.9-8.4zm0 13v6.5h-8c.1-2.5.5-4.9 1-7.3 2.3.5 4.6.7 7 .8zm-8 10.5h8v6.5c-2.4.1-4.7.4-7 .8-.5-2.4-.8-4.8-1-7.3zm8 10.5v9.1c-2.5-1.1-4.5-4.3-5.9-8.4 1.9-.4 3.9-.7 5.9-.7zm4 9v-2c.4.4.8.8 1.3 1.2-.4.3-.8.6-1.3.8zm1.7-23.5h-1.7v-6.5c2.4-.1 4.8-.4 7-.8.3 1.4.6 3 .7 4.5-2.2.5-4.2 1.5-6 2.8zm10-2.9c-.2-1.8-.5-3.6-.8-5.3 1.9-.6 3.7-1.3 5.3-2.1 2 3 3.3 6.5 3.7 10.3h-.6c-2.1-1.6-4.7-2.7-7.6-2.9zm1.9-10.6c-1.2.5-2.4 1-3.8 1.4-.8-2.3-1.7-4.3-2.9-6 2.6 1.1 4.8 2.7 6.7 4.6zm-24.6-4.6c-1.1 1.7-2.1 3.7-2.8 6-1.4-.4-2.6-.9-3.8-1.4 1.9-1.9 4.1-3.5 6.6-4.6zm-6.6 35.6c1.2-.5 2.4-1 3.8-1.4.8 2.3 1.7 4.3 2.8 6-2.5-1.1-4.7-2.7-6.6-4.6zm17.6-6c0-5.8 4.7-10.5 10.5-10.5s10.5 4.7 10.5 10.5-4.7 10.5-10.5 10.5-10.5-4.7-10.5-10.5z" fill="#f8f9fa" data-original="#000000"></path></g></svg>